HIERARCHY
ROOT joint_Root
{
	OFFSET 0.0 0.0 0.0
	CHANNELS 6 Xposition Yposition Zposition Zrotation Xrotation Yrotation 
	JOINT Hips
	{
		OFFSET 4.5925 91.4895 -427.239
		CHANNELS 6 Xposition Yposition Zposition Zrotation Xrotation Yrotation 
		JOINT Spine
		{
			OFFSET 15.7357 0.0 0.0
			CHANNELS 6 Xposition Yposition Zposition Zrotation Xrotation Yrotation 
			JOINT Chest
			{
				OFFSET 8.98455 -0.406207 0.0
				CHANNELS 6 Xposition Yposition Zposition Zrotation Xrotation Yrotation 
				JOINT Neck
				{
					OFFSET 16.3773 0.0 0.0
					CHANNELS 6 Xposition Yposition Zposition Zrotation Xrotation Yrotation 
					JOINT Head
					{
						OFFSET 6.45672 0.0 0.0
						CHANNELS 6 Xposition Yposition Zposition Zrotation Xrotation Yrotation 
						End Site
						{
							OFFSET 0.0 0.0 0.0
						}
					}
				}
				JOINT Shoulder_L
				{
					OFFSET 12.9942 -0.242716 4.98039
					CHANNELS 6 Xposition Yposition Zposition Zrotation Xrotation Yrotation 
					JOINT UpperArm_L
					{
						OFFSET 5.34809 0.0 0.0
						CHANNELS 6 Xposition Yposition Zposition Zrotation Xrotation Yrotation 
						JOINT LowerArm_L
						{
							OFFSET 24.3286 1.87007e-05 0.0
							CHANNELS 6 Xposition Yposition Zposition Zrotation Xrotation Yrotation 
							JOINT Hand_L
							{
								OFFSET 22.2916 0.0 0.0
								CHANNELS 6 Xposition Yposition Zposition Zrotation Xrotation Yrotation 
								End Site
								{
									OFFSET 0.0 0.0 0.0
								}
							}
						}
					}
				}
				JOINT Shoulder_R
				{
					OFFSET 12.9945 -0.242716 -4.98039
					CHANNELS 6 Xposition Yposition Zposition Zrotation Xrotation Yrotation 
					JOINT UpperArm_R
					{
						OFFSET -5.34813 0.0 0.0
						CHANNELS 6 Xposition Yposition Zposition Zrotation Xrotation Yrotation 
						JOINT LowerArm_R
						{
							OFFSET -24.3289 0.000322201 0.0
							CHANNELS 6 Xposition Yposition Zposition Zrotation Xrotation Yrotation 
							JOINT Hand_R
							{
								OFFSET -22.2915 -0.000108084 0.0
								CHANNELS 6 Xposition Yposition Zposition Zrotation Xrotation Yrotation 
								End Site
								{
									OFFSET 0.0 0.0 0.0
								}
							}
						}
					}
				}
			}
		}
		JOINT UpperLeg_L
		{
			OFFSET -2.19248 -6.46944 0.0
			CHANNELS 6 Xposition Yposition Zposition Zrotation Xrotation Yrotation 
			JOINT LowerLeg_L
			{
				OFFSET 39.0811 0.0 -1.23785e-05
				CHANNELS 6 Xposition Yposition Zposition Zrotation Xrotation Yrotation 
				JOINT Foot_L
				{
					OFFSET 40.9854 0.0 -1.26872e-05
					CHANNELS 6 Xposition Yposition Zposition Zrotation Xrotation Yrotation 
					JOINT Toes_L
					{
						OFFSET 11.7543 0.0 0.0
						CHANNELS 6 Xposition Yposition Zposition Zrotation Xrotation Yrotation 
						End Site
						{
							OFFSET 0.0 0.0 0.0
						}
					}
				}
			}
		}
		JOINT UpperLeg_R
		{
			OFFSET -2.19251 6.46944 0.0
			CHANNELS 6 Xposition Yposition Zposition Zrotation Xrotation Yrotation 
			JOINT LowerLeg_R
			{
				OFFSET -39.0811 -0.00228153 -0.0401928
				CHANNELS 6 Xposition Yposition Zposition Zrotation Xrotation Yrotation 
				JOINT Foot_R
				{
					OFFSET -40.9854 0.0 0.0
					CHANNELS 6 Xposition Yposition Zposition Zrotation Xrotation Yrotation 
					JOINT Toes_R
					{
						OFFSET -11.7543 0.0 0.0
						CHANNELS 6 Xposition Yposition Zposition Zrotation Xrotation Yrotation 
						End Site
						{
							OFFSET 0.0 0.0 0.0
						}
					}
				}
			}
		}
	}
}
MOTION
Frames:	4
Frame Time:	0.0333333
0.000000 0.000000 0.000000 0.000000 0.000000 -0.000000 -5.143240 82.509200 -2.025010 85.378500 -2.437990 11.916500 15.735700 0.000005 -0.000001 82.007600 81.082000 -80.734300 8.984550 -0.406207 -0.000000 9.931850 -2.440520 2.757040 16.377300 -0.000001 -0.000001 -2.343000 -3.882800 1.995800 6.456720 -0.000001 -0.000000 -6.668360 -0.791384 -0.443195 12.994200 -0.242716 4.980390 -91.263300 4.388540 -73.924000 5.348090 -0.000007 -0.000001 -60.222100 36.405900 -19.646700 24.328600 0.000019 0.000005 8.337960 20.008300 -23.192100 22.291600 -0.000001 0.000005 14.886000 5.217490 2.262280 12.994500 -0.242716 -4.980390 87.703000 10.480800 -77.564500 -5.348130 -0.000001 -0.000004 -57.903700 15.269500 -14.578800 -24.328900 0.000322 -0.000009 -1.833530 -7.732540 -13.353500 -22.291500 -0.000108 -0.000004 12.903900 5.325120 -0.596586 -2.192480 -6.469440 -0.000000 -167.092000 -8.038970 -14.852400 39.081100 -0.000007 -0.000012 -0.532676 0.284141 61.924700 40.985400 -0.000006 -0.000013 -2.557550 5.268630 -84.409400 11.754300 -0.000000 0.000003 -0.000113 -0.001142 -16.621300 -2.192510 6.469440 -0.000001 -175.808000 14.686100 166.407000 -39.081100 -0.002282 -0.040193 0.093580 -0.052452 59.871100 -40.985400 0.000008 0.000006 10.251000 1.404610 -85.130100 -11.754300 -0.000006 -0.000006 -0.000515 -0.008252 -16.909000
0.000000 0.000000 0.000000 0.000000 0.000000 -0.000000 -5.685480 83.908000 -1.320560 84.845700 0.032498 11.863300 15.735700 0.000005 -0.000001 81.364300 81.804700 -80.770900 8.984550 -0.406207 -0.000000 8.457570 -2.445930 1.366750 16.377300 -0.000001 -0.000001 -1.293270 -4.093700 1.963630 6.456720 -0.000001 -0.000000 -5.333860 -1.544800 0.647319 12.994200 -0.242716 4.980390 -91.166800 3.941840 -73.496500 5.348090 -0.000007 -0.000001 -62.339700 34.864000 -19.422600 24.328600 0.000019 0.000005 6.529600 19.695500 -18.755000 22.291600 -0.000001 0.000005 15.730000 5.121400 4.615670 12.994500 -0.242716 -4.980390 87.808700 9.568020 -77.035600 -5.348130 -0.000001 -0.000004 -55.466100 11.839600 -16.314200 -24.328900 0.000322 -0.000009 -1.189930 -6.222030 -10.840700 -22.291500 -0.000108 -0.000004 7.137390 5.286770 0.454877 -2.192480 -6.469440 -0.000000 -166.526000 -6.432110 -13.085300 39.081100 -0.000007 -0.000012 -0.469319 0.294842 57.862600 40.985400 -0.000006 -0.000013 -2.621680 6.220150 -82.594900 11.754300 -0.000000 0.000003 -0.000101 -0.001034 -16.617200 -2.192510 6.469440 -0.000001 -175.729000 17.547200 169.223000 -39.081100 -0.002282 -0.040193 0.093910 -0.062629 55.370300 -40.985400 0.000008 0.000006 10.399400 2.098840 -83.439900 -11.754300 -0.000006 -0.000006 -0.012501 -0.024539 -16.997500
0.000000 0.000000 0.000000 0.000000 0.000000 -0.000000 -5.886790 86.081000 -0.683861 85.212000 1.728550 10.779300 15.735700 0.000005 -0.000001 80.352300 83.031100 -80.854900 8.984550 -0.406207 -0.000000 5.968520 -2.321760 -0.883141 16.377300 -0.000001 -0.000001 0.520988 -4.024530 2.224100 6.456720 -0.000001 -0.000000 -3.938200 -2.273930 1.845730 12.994200 -0.242716 4.980390 -90.999000 3.164150 -72.464600 5.348090 -0.000007 -0.000001 -64.566400 33.334200 -17.079500 24.328600 0.000019 0.000005 5.264730 17.694700 -16.865400 22.291600 -0.000001 0.000005 14.281800 5.114350 4.773640 12.994500 -0.242716 -4.980390 88.121100 7.912430 -76.596000 -5.348130 -0.000001 -0.000004 -50.704900 5.744860 -20.006900 -24.328900 0.000322 -0.000009 -1.356130 -7.004840 -10.975200 -22.291500 -0.000108 -0.000004 6.058560 5.247600 1.492990 -2.192480 -6.469440 -0.000000 -167.229000 -5.725320 -10.693700 39.081100 -0.000007 -0.000012 -0.380145 0.309474 50.852000 40.985400 -0.000006 -0.000013 -2.763840 6.582720 -79.326100 11.754300 -0.000000 0.000003 -0.000069 -0.000752 -16.606600 -2.192510 6.469440 -0.000001 -176.096000 18.683500 171.974000 -39.081100 -0.002282 -0.040193 0.082208 -0.070035 48.426400 -40.985400 0.000008 0.000006 9.985030 2.638190 -80.099300 -11.754300 -0.000006 -0.000006 -0.069066 -0.099106 -17.354900
0.000000 0.000000 0.000000 0.000000 0.000000 -0.000000 -5.680550 88.247600 -0.306440 86.151200 2.599820 8.745810 15.735700 0.000005 -0.000001 78.989100 84.442700 -80.609300 8.984550 -0.406207 -0.000000 3.118820 -2.054930 -3.181150 16.377300 -0.000001 -0.000001 2.159050 -3.745730 2.176520 6.456720 -0.000001 -0.000000 -2.623380 -2.773320 2.964070 12.994200 -0.242716 4.980390 -90.718900 2.124160 -71.295500 5.348090 -0.000007 -0.000001 -66.839200 30.882700 -13.379500 24.328600 0.000019 0.000005 5.873400 18.294300 -18.143500 22.291600 -0.000001 0.000005 11.055300 5.171730 3.400820 12.994500 -0.242716 -4.980390 88.642200 5.671360 -76.510800 -5.348130 -0.000001 -0.000004 -44.483800 -3.688100 -26.210400 -24.328900 0.000322 -0.000009 -2.181410 -9.829580 -12.566700 -22.291500 -0.000108 -0.000004 8.247760 5.241690 1.657850 -2.192480 -6.469440 -0.000000 -168.776000 -5.955740 -8.629420 39.081100 -0.000007 -0.000012 -0.286479 0.309163 42.819700 40.985400 -0.000006 -0.000013 -2.792440 6.587620 -75.446400 11.754300 -0.000000 0.000003 -0.000049 -0.000553 -16.599000 -2.192510 6.469440 -0.000001 -176.825000 19.072600 173.748000 -39.081100 -0.002282 -0.040193 0.065611 -0.071602 41.042100 -40.985400 0.000008 0.000006 9.353460 3.597290 -76.053500 -11.754300 -0.000006 -0.000006 -0.140338 -0.191652 -17.850200
